<?xml version="1.0" standalone="no"?>
<!DOCTYPE svg PUBLIC "-//W3C//DTD SVG 20010904//EN"
 "http://www.w3.org/TR/2001/REC-SVG-20010904/DTD/svg10.dtd">
<svg version="1.0" xmlns="http://www.w3.org/2000/svg"
 width="339.000000pt" height="339.000000pt" viewBox="0 0 339.000000 339.000000"
 preserveAspectRatio="xMidYMid meet">
<metadata>
Created by potrace 1.11, written by Peter Selinger 2001-2013
</metadata>
<g transform="translate(0.000000,339.000000) scale(0.100000,-0.100000)"
fill="#000000" stroke="none">
<path d="M1775 3370 c-238 -48 -456 -168 -617 -338 -160 -170 -234 -346 -245
-582 -6 -136 16 -265 65 -376 l31 -69 -100 -8 c-99 -8 -100 -8 -142 21 -65 45
-177 98 -236 112 -187 44 -381 -104 -381 -293 0 -27 12 -97 26 -156 28 -113
28 -116 4 -381 -18 -195 21 -395 115 -586 153 -314 457 -546 850 -647 304 -79
658 -86 981 -22 483 97 815 373 941 782 25 81 27 101 27 258 0 155 -3 178 -27
257 -32 105 -89 230 -145 318 l-42 65 43 7 c177 32 261 68 291 127 36 69 4
182 -80 279 l-36 43 13 62 c21 94 16 284 -10 382 -41 153 -118 289 -236 414
-170 180 -381 291 -638 337 -115 20 -338 17 -452 -6z m130 -110 c-4 -7 3 -7
20 0 15 6 52 9 83 9 56 -2 56 -2 17 -10 -39 -7 -38 -7 8 -3 26 2 68 6 95 9 31
3 39 2 22 -4 -25 -7 -24 -8 7 -12 18 -3 30 -2 27 3 -3 4 6 8 20 8 14 0 26 -5
26 -11 0 -6 7 -9 15 -5 23 8 76 -5 68 -17 -4 -6 0 -8 10 -4 9 3 32 0 52 -9 39
-16 47 -29 13 -19 -21 5 -21 5 -5 -6 13 -7 22 -8 29 -1 12 12 107 -26 134 -53
8 -8 22 -15 29 -15 7 0 21 -8 31 -17 10 -10 22 -18 28 -18 6 -1 10 -7 8 -14
-1 -7 2 -10 7 -7 14 9 143 -103 135 -116 -4 -7 -2 -8 4 -4 6 3 16 -3 22 -14
12 -22 5 -44 -11 -35 -14 9 -11 -9 5 -31 8 -10 18 -16 22 -11 4 4 2 7 -4 7
-18 0 -14 27 4 34 12 5 15 2 10 -9 -3 -9 -2 -14 3 -11 4 3 17 -4 27 -17 16
-19 17 -20 1 -8 -9 8 -20 12 -22 9 -3 -3 6 -11 20 -18 30 -16 97 -144 88 -168
-4 -9 -2 -13 4 -9 15 9 32 -55 45 -170 11 -92 10 -104 -5 -121 -9 -10 -17 -23
-17 -28 0 -5 4 -2 10 6 5 8 12 11 16 7 4 -3 1 -13 -5 -21 -7 -8 -10 -20 -6
-26 3 -5 4 -19 0 -29 -6 -19 -7 -19 -58 1 -29 12 -56 25 -61 30 -6 4 -15 8
-20 8 -6 0 -5 -4 2 -8 7 -5 -13 -9 -47 -10 -33 -1 -82 -10 -109 -21 -27 -11
-60 -18 -73 -15 -21 4 -22 3 -4 -4 18 -8 17 -11 -15 -27 -19 -10 -52 -31 -72
-47 -26 -20 -39 -25 -44 -17 -4 7 -3 9 3 6 5 -3 10 0 10 8 0 10 -5 10 -23 -3
-12 -9 -17 -20 -12 -23 5 -3 -9 -26 -31 -50 -22 -24 -41 -39 -41 -33 0 6 7 17
15 24 8 7 15 17 15 22 0 18 -33 -24 -35 -45 -2 -12 -14 -41 -28 -65 -20 -35
-23 -50 -17 -83 4 -23 17 -54 29 -70 12 -16 19 -34 16 -39 -4 -6 1 -7 11 -3
10 3 15 2 12 -3 -4 -5 4 -10 16 -10 12 -1 48 -14 79 -28 35 -17 79 -29 119
-31 34 -3 70 -7 79 -10 20 -7 85 -96 81 -112 -1 -6 3 -15 9 -19 8 -4 9 -3 5 4
-15 25 3 10 20 -15 13 -20 13 -25 3 -18 -11 8 -11 6 1 -5 26 -25 72 -119 64
-132 -4 -6 -3 -8 4 -4 11 7 26 -34 62 -164 23 -85 26 -124 9 -100 -11 16 -11
14 13 -53 6 -16 7 -43 2 -65 -4 -20 -7 -44 -6 -52 3 -25 -9 -90 -16 -86 -4 2
-7 -11 -8 -30 -1 -37 -71 -204 -86 -204 -5 0 -7 -4 -4 -9 3 -5 -3 -20 -14 -34
-11 -14 -20 -28 -20 -32 0 -4 -17 -29 -38 -55 l-38 -48 0 37 c0 20 4 40 10 44
7 5 5 7 -4 4 -8 -2 -22 -17 -30 -33 -8 -16 -19 -32 -25 -36 -6 -5 -5 -8 3 -8
8 0 16 9 19 20 3 11 9 20 14 20 12 0 11 -27 -1 -35 -6 -4 -8 -11 -4 -16 7 -12
-63 -79 -79 -76 -6 1 -11 -4 -12 -12 0 -7 -20 -24 -45 -37 -25 -13 -40 -24
-35 -24 6 0 4 -4 -4 -9 -10 -6 -25 -4 -43 5 -33 17 -55 10 -37 -12 6 -8 19
-14 28 -13 11 0 9 3 -6 9 -13 5 -23 12 -23 15 0 9 16 5 35 -8 16 -13 14 -16
-37 -45 -31 -18 -62 -29 -74 -26 -10 3 -30 0 -44 -5 -23 -10 -22 -11 10 -6 33
5 33 4 10 -7 -14 -6 -31 -10 -37 -9 -7 1 -13 -3 -13 -9 0 -5 -3 -9 -7 -8 -5 1
-20 -4 -36 -10 -15 -7 -38 -14 -50 -16 -12 -2 -35 -9 -50 -15 -35 -14 -40 -14
-31 0 3 6 -4 4 -17 -4 -31 -20 -68 -26 -239 -41 -36 -3 -89 -9 -118 -12 -73
-9 -373 6 -347 17 13 6 0 7 -34 3 -42 -5 -52 -3 -46 6 5 9 4 11 -3 6 -17 -10
-146 15 -155 31 -5 8 -16 11 -28 8 -18 -6 -74 7 -111 26 -10 5 -25 9 -33 9 -9
0 -13 5 -10 10 4 6 11 8 16 5 5 -4 9 -4 9 -1 0 3 -15 13 -32 21 -26 12 -29 13
-15 1 13 -10 15 -16 7 -21 -6 -4 -22 3 -34 14 -13 12 -30 19 -38 16 -9 -4 -29
5 -46 19 -16 15 -35 26 -41 26 -7 0 -44 21 -83 46 -51 33 -67 49 -59 57 6 6
11 16 11 21 0 6 -5 3 -11 -6 -14 -25 -32 -23 -24 2 6 19 -3 25 -29 21 -13 -3
-46 30 -40 40 3 5 -1 6 -9 3 -11 -4 -13 1 -10 19 3 14 -1 28 -7 32 -9 5 -10 1
-5 -16 l7 -24 -27 25 c-48 44 -117 150 -112 170 3 11 2 19 -2 18 -19 -2 -31 3
-26 12 4 6 11 7 17 4 7 -4 8 -2 4 4 -4 6 -14 8 -23 5 -10 -4 -14 -2 -10 4 4 6
0 16 -8 23 -9 7 -12 23 -9 43 3 24 2 27 -4 13 -8 -18 -10 -17 -19 10 -8 23 -7
37 5 60 15 29 15 29 -6 11 -20 -18 -20 -18 -28 25 -5 24 -8 50 -9 58 0 8 -4
21 -9 29 -5 7 -11 43 -13 80 -2 36 -6 78 -9 93 -4 18 -2 28 5 28 6 0 11 5 11
11 0 5 -5 7 -12 3 -8 -5 -9 -2 -5 9 4 10 9 57 13 105 3 48 9 92 13 97 10 14 5
130 -8 190 -6 27 -9 56 -6 63 3 7 1 11 -4 8 -5 -3 -14 15 -20 42 -12 51 -11
133 2 125 5 -3 7 3 5 13 -2 11 2 18 9 17 7 -2 10 3 7 11 -8 21 51 70 102 85
28 8 61 11 91 6 42 -6 46 -8 30 -20 -12 -8 -14 -15 -8 -20 6 -3 11 -2 11 3 0
20 29 20 69 0 22 -11 38 -25 35 -30 -4 -6 -1 -8 7 -6 18 7 51 -10 44 -22 -3
-5 0 -12 6 -16 8 -4 9 -3 5 4 -13 21 7 13 35 -14 24 -23 37 -27 94 -28 37 0
69 2 72 7 6 9 133 9 133 -1 0 -12 134 -5 138 7 2 6 7 9 11 7 10 -7 8 71 -3 81
-5 5 -6 2 -1 -6 5 -10 4 -12 -3 -7 -8 5 -9 13 -3 24 6 12 5 24 -5 36 -7 10
-11 23 -7 29 3 6 1 7 -5 4 -5 -4 -8 -17 -5 -30 4 -18 3 -19 -6 -7 -6 8 -11 23
-11 33 0 9 -4 17 -9 17 -5 0 -14 14 -20 31 -9 26 -8 30 5 25 8 -3 12 -2 9 4
-3 6 -12 10 -20 10 -7 0 -15 7 -19 15 -6 18 2 45 15 45 5 0 9 8 8 18 0 12 -2
13 -6 3 -5 -11 -7 -11 -15 0 -8 11 -9 10 -4 -3 3 -10 1 -20 -3 -22 -5 -3 -12
13 -16 37 -5 23 -10 51 -12 62 -12 61 -13 199 -2 264 11 68 13 72 27 55 14
-18 14 -18 7 1 -5 11 -8 29 -8 40 1 30 40 127 63 155 20 25 20 25 35 5 9 -11
13 -26 10 -35 -5 -11 -3 -12 5 -4 12 12 -6 64 -22 64 -24 0 94 137 176 203 40
33 45 35 57 20 12 -14 11 -15 -11 -9 -18 5 -21 5 -10 -3 8 -5 11 -13 7 -18 -5
-4 -12 -1 -16 6 -6 9 -11 10 -15 2 -4 -6 -2 -11 4 -11 6 0 8 -4 5 -10 -10 -16
-2 -12 36 15 19 14 34 33 34 41 0 8 14 23 30 34 17 11 26 20 22 20 -18 0 -78
-48 -65 -53 7 -2 9 -8 5 -13 -12 -13 -28 18 -16 32 5 6 32 22 59 35 28 13 50
27 50 30 0 4 27 15 60 25 32 9 56 22 53 27 -3 5 19 7 53 3 37 -3 46 -2 24 2
l-35 8 52 18 c29 9 61 15 71 12 10 -4 36 0 58 8 47 18 67 20 59 6z m-1240
-2810 c3 -5 1 -10 -4 -10 -6 0 -11 5 -11 10 0 6 2 10 4 10 3 0 8 -4 11 -10z"/>
<path d="M2338 3203 c7 -3 16 -2 19 1 4 3 -2 6 -13 5 -11 0 -14 -3 -6 -6z"/>
<path d="M1495 3120 c3 -5 8 -10 11 -10 2 0 4 5 4 10 0 6 -5 10 -11 10 -5 0
-7 -4 -4 -10z"/>
<path d="M2500 3109 c0 -5 15 -9 33 -7 18 1 39 -2 47 -7 11 -6 12 -5 4 4 -14
15 -84 23 -84 10z"/>
<path d="M2660 3041 c0 -5 7 -12 16 -15 14 -5 15 -4 4 9 -14 17 -20 19 -20 6z"/>
<path d="M1410 3015 c-11 -13 -10 -14 4 -9 9 3 16 10 16 15 0 13 -6 11 -20 -6z"/>
<path d="M1320 3005 c-11 -13 -10 -14 4 -9 9 3 16 10 16 15 0 13 -6 11 -20 -6z"/>
<path d="M2707 3009 c7 -9 10 -19 6 -23 -4 -4 1 -4 10 0 10 3 17 7 15 8 -2 1
-12 8 -23 16 -18 14 -19 13 -8 -1z"/>
<path d="M1270 2962 c-23 -18 -21 -42 3 -42 7 0 6 4 -3 10 -13 9 -13 11 0 20
8 5 20 11 25 13 6 3 7 7 4 11 -3 4 -17 -2 -29 -12z"/>
<path d="M1326 2971 c-3 -5 1 -14 8 -20 12 -10 13 -8 9 8 -6 23 -9 25 -17 12z"/>
<path d="M2719 2953 c-13 -16 -12 -17 4 -4 16 13 21 21 13 21 -2 0 -10 -8 -17
-17z"/>
<path d="M1295 2940 c-3 -5 -1 -10 4 -10 6 0 11 5 11 10 0 6 -2 10 -4 10 -3 0
-8 -4 -11 -10z"/>
<path d="M1250 2896 c0 -8 4 -17 9 -20 5 -4 7 3 4 14 -6 23 -13 26 -13 6z"/>
<path d="M1218 2894 c-4 -5 0 -18 8 -29 15 -20 17 -12 5 19 -4 11 -10 15 -13
10z"/>
<path d="M1186 2861 c-3 -5 1 -11 9 -15 8 -3 15 -1 15 4 0 13 -18 22 -24 11z"/>
<path d="M1143 2788 c1 -15 6 -23 11 -18 4 4 4 16 -2 26 -9 16 -10 14 -9 -8z"/>
<path d="M1092 2701 c-7 -21 -12 -45 -11 -52 0 -8 7 8 15 35 9 26 13 50 11 52
-2 2 -9 -13 -15 -35z"/>
<path d="M2871 2694 c0 -11 3 -14 6 -6 3 7 2 16 -1 19 -3 4 -6 -2 -5 -13z"/>
<path d="M2890 2690 c0 -5 5 -10 11 -10 5 0 7 5 4 10 -3 6 -8 10 -11 10 -2 0
-4 -4 -4 -10z"/>
<path d="M2956 2588 c-8 -41 -3 -45 11 -8 6 17 8 32 3 35 -4 2 -10 -9 -14 -27z"/>
<path d="M1092 2575 c0 -16 2 -22 5 -12 2 9 2 23 0 30 -3 6 -5 -1 -5 -18z"/>
<path d="M1061 2563 c-1 -6 -4 -20 -7 -30 -5 -15 -4 -15 5 -3 9 12 11 13 11 1
0 -8 2 -12 5 -9 3 3 1 16 -4 29 -5 13 -10 19 -10 12z"/>
<path d="M2976 2545 c4 -8 8 -15 10 -15 2 0 4 7 4 15 0 8 -4 15 -10 15 -5 0
-7 -7 -4 -15z"/>
<path d="M2971 2464 c0 -11 3 -14 6 -6 3 7 2 16 -1 19 -3 4 -6 -2 -5 -13z"/>
<path d="M1987 2429 c7 -7 15 -10 18 -7 3 3 -2 9 -12 12 -14 6 -15 5 -6 -5z"/>
<path d="M1770 2420 c-8 -5 -12 -11 -10 -14 3 -2 14 2 24 10 22 15 10 19 -14
4z"/>
<path d="M1880 2420 c-18 -12 -2 -12 25 0 13 6 15 9 5 9 -8 0 -22 -4 -30 -9z"/>
<path d="M1840 2400 c-8 -5 -11 -10 -6 -10 5 0 -3 -9 -17 -20 -30 -24 -32 -24
-50 -6 -12 12 -14 10 -14 -15 0 -26 2 -27 14 -11 14 16 14 15 8 -3 -28 -79
-30 -137 -9 -189 4 -12 4 -17 -2 -13 -12 7 -12 -33 -1 -50 5 -7 13 -13 18 -13
6 0 8 4 4 9 -3 5 0 13 5 16 7 5 5 12 -7 21 -10 7 -13 13 -8 14 6 0 24 -14 42
-30 18 -17 39 -30 48 -30 9 0 14 -4 10 -10 -6 -10 38 -7 76 5 16 5 19 4 14 -5
-5 -8 -3 -11 6 -8 8 3 13 11 12 17 -2 6 1 11 6 11 5 0 23 11 39 25 16 13 33
21 37 17 5 -4 5 -1 1 5 -4 7 -1 23 6 35 7 13 13 47 14 77 1 45 -3 59 -25 84
-49 57 -61 67 -79 67 -10 0 -22 3 -26 7 -11 11 -65 12 -72 2 -3 -5 -12 -9 -20
-9 -8 0 -12 5 -9 10 8 12 4 12 -15 0z m-60 -300 c0 -5 -4 -10 -10 -10 -5 0
-10 5 -10 10 0 6 5 10 10 10 6 0 10 -4 10 -10z"/>
<path d="M1790 2390 c-8 -5 -12 -11 -10 -14 3 -2 14 2 24 10 22 15 10 19 -14
4z"/>
<path d="M2748 2343 c7 -3 16 -2 19 1 4 3 -2 6 -13 5 -11 0 -14 -3 -6 -6z"/>
<path d="M2890 2340 c-8 -5 -10 -10 -5 -10 6 0 17 5 25 10 8 5 11 10 5 10 -5
0 -17 -5 -25 -10z"/>
<path d="M2818 2333 c6 -2 18 -2 25 0 6 3 1 5 -13 5 -14 0 -19 -2 -12 -5z"/>
<path d="M2961 2314 c0 -11 3 -14 6 -6 3 7 2 16 -1 19 -3 4 -6 -2 -5 -13z"/>
<path d="M2716 2312 c-3 -5 8 -6 25 -4 16 2 29 6 29 8 0 8 -49 4 -54 -4z"/>
<path d="M2898 2313 c6 -2 18 -2 25 0 6 3 1 5 -13 5 -14 0 -19 -2 -12 -5z"/>
<path d="M2095 2271 c-3 -5 -1 -12 5 -16 5 -3 10 1 10 9 0 18 -6 21 -15 7z"/>
<path d="M2565 2259 c17 -20 18 -22 3 -16 -10 4 -18 2 -18 -3 0 -11 17 -12 42
-2 14 6 12 10 -15 25 l-32 19 20 -23z"/>
<path d="M2093 2168 c-18 -47 -16 -59 2 -24 9 17 14 36 13 44 -2 8 -9 -1 -15
-20z"/>
<path d="M2131 2174 c0 -11 3 -14 6 -6 3 7 2 16 -1 19 -3 4 -6 -2 -5 -13z"/>
<path d="M2116 2133 c-6 -14 -5 -15 5 -6 7 7 10 15 7 18 -3 3 -9 -2 -12 -12z"/>
<path d="M2014 2075 c-10 -8 -14 -15 -8 -15 5 0 19 7 30 15 10 8 14 15 8 15
-5 0 -19 -7 -30 -15z"/>
<path d="M1813 2066 c-9 -11 -9 -15 0 -19 7 -3 14 3 14 14 2 22 2 22 -14 5z"/>
<path d="M1176 2045 c-9 -26 -7 -32 5 -12 6 10 9 21 6 23 -2 3 -7 -2 -11 -11z"/>
<path d="M2340 2015 c0 -14 2 -25 4 -25 2 0 6 11 8 25 3 14 1 25 -3 25 -5 0
-9 -11 -9 -25z"/>
<path d="M448 2003 c7 -3 16 -2 19 1 4 3 -2 6 -13 5 -11 0 -14 -3 -6 -6z"/>
<path d="M352 1975 c-7 -8 -9 -15 -4 -15 5 0 15 7 22 15 16 19 -1 19 -18 0z"/>
<path d="M440 1986 c0 -2 9 -6 20 -9 11 -3 18 -1 14 4 -5 9 -34 13 -34 5z"/>
<path d="M2321 1973 c0 -12 -4 -30 -7 -40 -5 -17 -5 -17 6 0 6 10 9 28 7 40
-4 22 -4 22 -6 0z"/>
<path d="M630 1921 c0 -10 19 -25 25 -20 1 2 -3 10 -11 17 -8 7 -14 8 -14 3z"/>
<path d="M2323 1875 c-3 -9 -3 -18 -1 -21 3 -3 8 4 11 16 6 23 -1 27 -10 5z"/>
<path d="M757 1849 c7 -7 15 -10 18 -7 3 3 -2 9 -12 12 -14 6 -15 5 -6 -5z"/>
<path d="M848 1853 c7 -3 16 -2 19 1 4 3 -2 6 -13 5 -11 0 -14 -3 -6 -6z"/>
<path d="M1080 1850 l-35 -7 32 -2 c17 0 35 4 38 9 3 6 5 9 3 9 -2 -1 -19 -5
-38 -9z"/>
<path d="M1168 1853 c7 -3 16 -2 19 1 4 3 -2 6 -13 5 -11 0 -14 -3 -6 -6z"/>
<path d="M2340 1856 c0 -2 7 -9 15 -16 13 -11 14 -10 9 4 -5 14 -24 23 -24 12z"/>
<path d="M720 1822 c-13 -14 -12 -15 4 -9 10 4 34 7 53 7 44 0 41 5 -7 12 -24
4 -39 1 -50 -10z"/>
<path d="M848 1833 c7 -3 16 -2 19 1 4 3 -2 6 -13 5 -11 0 -14 -3 -6 -6z"/>
<path d="M1088 1823 c7 -3 16 -2 19 1 4 3 -2 6 -13 5 -11 0 -14 -3 -6 -6z"/>
<path d="M280 1815 c0 -5 5 -17 10 -25 5 -8 10 -10 10 -5 0 6 -5 17 -10 25 -5
8 -10 11 -10 5z"/>
<path d="M848 1813 c7 -3 16 -2 19 1 4 3 -2 6 -13 5 -11 0 -14 -3 -6 -6z"/>
<path d="M2474 1755 c0 -15 5 -21 14 -18 10 5 11 8 1 13 -8 6 -6 9 7 12 18 4
18 4 -1 9 -17 5 -21 1 -21 -16z"/>
<path d="M2523 1745 c0 -8 4 -12 9 -9 4 3 8 9 8 15 0 5 -4 9 -8 9 -5 0 -9 -7
-9 -15z"/>
<path d="M2545 1730 c-3 -6 1 -7 9 -4 18 7 21 14 7 14 -6 0 -13 -4 -16 -10z"/>
<path d="M2658 1723 c7 -3 16 -2 19 1 4 3 -2 6 -13 5 -11 0 -14 -3 -6 -6z"/>
<path d="M508 1703 c7 -3 16 -2 19 1 4 3 -2 6 -13 5 -11 0 -14 -3 -6 -6z"/>
<path d="M570 1687 c0 -3 15 -10 32 -16 18 -6 28 -7 23 -2 -12 10 -55 25 -55
18z"/>
<path d="M2741 1673 c7 -12 15 -20 18 -17 3 2 -3 12 -13 22 -17 16 -18 16 -5
-5z"/>
<path d="M518 1613 c-30 -69 -37 -262 -13 -353 10 -36 20 -77 22 -92 3 -16 10
-28 15 -28 6 0 7 -7 4 -16 -3 -8 -2 -13 3 -10 8 5 20 -19 25 -49 5 -29 19 -54
33 -60 15 -5 15 -4 1 12 -17 21 -36 54 -21 38 5 -5 25 -30 45 -55 20 -25 48
-58 62 -74 14 -16 23 -33 19 -39 -3 -6 -1 -7 6 -3 6 4 18 2 27 -4 12 -10 12
-16 2 -29 -12 -14 -11 -14 5 -2 13 11 20 11 32 1 8 -7 12 -16 9 -21 -3 -5 1
-6 8 -4 7 3 29 -9 48 -26 20 -17 27 -28 17 -25 -11 3 -16 2 -12 -4 3 -6 17 -7
29 -4 29 7 116 -30 95 -40 -8 -3 -4 -4 9 -2 13 3 42 -2 65 -10 149 -53 391
-22 562 72 52 28 104 74 85 74 -7 0 -9 8 -5 21 5 15 4 19 -4 15 -6 -4 -11 -3
-11 3 0 5 6 11 12 13 7 3 -5 5 -27 6 -29 2 -62 -9 -120 -38 -44 -22 -89 -41
-100 -43 -11 -1 -25 -6 -31 -10 -17 -10 -164 -29 -188 -24 -12 2 -30 8 -41 12
-17 6 -17 5 -5 -5 13 -9 12 -10 -5 -6 -11 3 -33 8 -50 12 -109 23 -290 115
-270 136 3 3 8 15 10 28 4 18 2 20 -11 9 -11 -9 -18 -9 -26 -1 -7 7 -17 12
-23 12 -5 0 3 -9 18 -19 16 -10 25 -21 19 -25 -18 -11 -57 44 -57 81 0 25 -5
37 -16 38 -23 4 -44 -10 -30 -19 6 -4 11 -2 11 4 0 6 5 8 11 5 6 -4 8 -14 5
-22 -3 -8 -1 -11 4 -8 6 3 10 1 10 -4 0 -18 -15 -12 -40 14 -13 14 -20 25 -16
25 4 0 -3 10 -14 22 -64 68 -120 251 -106 342 4 23 8 55 10 71 2 17 7 51 11
76 9 54 -9 79 -56 79 -26 0 -32 -6 -51 -47z"/>
<path d="M492 1605 c0 -16 2 -22 5 -12 2 9 2 23 0 30 -3 6 -5 -1 -5 -18z"/>
<path d="M2790 1581 c0 -6 4 -13 10 -16 6 -3 7 1 4 9 -7 18 -14 21 -14 7z"/>
<path d="M361 1544 c0 -11 3 -14 6 -6 3 7 2 16 -1 19 -3 4 -6 -2 -5 -13z"/>
<path d="M2801 1534 c0 -11 3 -14 6 -6 3 7 2 16 -1 19 -3 4 -6 -2 -5 -13z"/>
<path d="M2830 1516 c0 -8 7 -16 15 -20 13 -4 14 -2 5 14 -13 23 -20 26 -20 6z"/>
<path d="M2880 1415 c0 -2 7 -8 15 -15 12 -10 15 -10 15 2 0 8 -7 15 -15 15
-8 0 -15 -1 -15 -2z"/>
<path d="M2900 1359 c-7 -11 -9 -23 -6 -26 3 -3 8 2 12 11 3 9 10 13 15 10 5
-3 6 2 3 10 -8 21 -11 20 -24 -5z"/>
<path d="M472 1340 c0 -14 2 -19 5 -12 2 6 2 18 0 25 -3 6 -5 1 -5 -13z"/>
<path d="M2871 1344 c0 -11 3 -14 6 -6 3 7 2 16 -1 19 -3 4 -6 -2 -5 -13z"/>
<path d="M621 1304 c0 -11 3 -14 6 -6 3 7 2 16 -1 19 -3 4 -6 -2 -5 -13z"/>
<path d="M471 1294 c0 -11 3 -14 6 -6 3 7 2 16 -1 19 -3 4 -6 -2 -5 -13z"/>
<path d="M486 1225 c8 -37 14 -45 14 -19 0 10 -5 26 -10 34 -8 11 -9 7 -4 -15z"/>
<path d="M640 1235 c0 -5 5 -17 10 -25 9 -13 10 -13 11 0 0 10 3 8 9 -5 6 -13
9 -15 9 -5 0 8 -4 22 -9 30 -9 13 -10 13 -10 0 0 -13 -1 -13 -10 0 -5 8 -10
11 -10 5z"/>
<path d="M697 1219 c4 -13 8 -18 11 -10 2 7 -1 18 -6 23 -8 8 -9 4 -5 -13z"/>
<path d="M687 1176 c-3 -8 1 -22 9 -33 14 -17 15 -17 6 2 -5 11 -7 26 -5 33 6
17 -4 15 -10 -2z"/>
<path d="M516 1127 c3 -10 9 -15 12 -12 3 3 0 11 -7 18 -10 9 -11 8 -5 -6z"/>
<path d="M476 1115 c4 -8 10 -15 15 -15 4 0 6 7 3 15 -4 8 -10 15 -15 15 -4 0
-6 -7 -3 -15z"/>
<path d="M545 1080 c3 -5 8 -10 11 -10 2 0 4 5 4 10 0 6 -5 10 -11 10 -5 0 -7
-4 -4 -10z"/>
<path d="M2961 964 c0 -11 3 -14 6 -6 3 7 2 16 -1 19 -3 4 -6 -2 -5 -13z"/>
<path d="M352 950 c0 -14 2 -19 5 -12 2 6 2 18 0 25 -3 6 -5 1 -5 -13z"/>
<path d="M643 952 c10 -10 14 -22 10 -27 -5 -4 -2 -5 5 -1 14 9 -2 46 -20 46
-6 0 -4 -8 5 -18z"/>
<path d="M968 913 c-10 -2 -18 -9 -18 -14 0 -6 10 -5 23 2 37 20 36 23 -5 12z"/>
<path d="M1712 900 c0 -14 2 -19 5 -12 2 6 2 18 0 25 -3 6 -5 1 -5 -13z"/>
<path d="M1000 896 c0 -2 7 -6 15 -10 8 -3 15 -1 15 4 0 6 -7 10 -15 10 -8 0
-15 -2 -15 -4z"/>
<path d="M1488 893 c7 -3 16 -2 19 1 4 3 -2 6 -13 5 -11 0 -14 -3 -6 -6z"/>
<path d="M1515 880 c-3 -6 1 -7 9 -4 18 7 21 14 7 14 -6 0 -13 -4 -16 -10z"/>
<path d="M1000 876 c0 -2 7 -9 15 -16 9 -7 15 -8 15 -2 0 5 -7 12 -15 16 -8 3
-15 4 -15 2z"/>
<path d="M720 859 c0 -5 5 -7 10 -4 6 3 10 8 10 11 0 2 -4 4 -10 4 -5 0 -10
-5 -10 -11z"/>
<path d="M1731 834 c0 -11 -10 -30 -21 -42 -12 -12 -16 -22 -11 -22 17 0 43
47 38 67 -4 15 -5 15 -6 -3z"/>
<path d="M1103 833 c9 -2 23 -2 30 0 6 3 -1 5 -18 5 -16 0 -22 -2 -12 -5z"/>
<path d="M1355 830 c-13 -5 -14 -9 -5 -9 8 0 24 4 35 9 13 5 14 9 5 9 -8 0
-24 -4 -35 -9z"/>
<path d="M1701 824 c0 -11 3 -14 6 -6 3 7 2 16 -1 19 -3 4 -6 -2 -5 -13z"/>
<path d="M2901 835 c0 -5 3 -18 7 -27 6 -15 9 -14 19 7 6 14 7 25 2 25 -5 0
-9 -6 -9 -12 0 -9 -4 -8 -10 2 -5 8 -9 11 -9 5z"/>
<path d="M1634 785 c-10 -8 -14 -15 -7 -15 6 0 15 5 18 10 4 6 11 7 17 4 7 -4
8 -2 4 4 -9 15 -8 15 -32 -3z"/>
<path d="M436 775 c4 -8 10 -12 15 -9 11 6 2 24 -11 24 -5 0 -7 -7 -4 -15z"/>
<path d="M800 775 c-11 -13 -10 -14 4 -9 9 3 16 10 16 15 0 13 -6 11 -20 -6z"/>
<path d="M2880 739 c-6 -11 -10 -25 -8 -30 2 -5 8 4 15 21 13 34 9 40 -7 9z"/>
<path d="M987 699 c7 -7 15 -10 18 -7 3 3 -2 9 -12 12 -14 6 -15 5 -6 -5z"/>
<path d="M1027 699 c7 -7 15 -10 18 -7 3 3 -2 9 -12 12 -14 6 -15 5 -6 -5z"/>
<path d="M1518 703 c6 -2 18 -2 25 0 6 3 1 5 -13 5 -14 0 -19 -2 -12 -5z"/>
<path d="M950 696 c0 -2 7 -7 16 -10 8 -3 12 -2 9 4 -6 10 -25 14 -25 6z"/>
<path d="M1408 693 c7 -3 16 -2 19 1 4 3 -2 6 -13 5 -11 0 -14 -3 -6 -6z"/>
<path d="M466 665 c9 -14 20 -25 25 -25 5 0 -1 11 -13 25 -12 14 -23 25 -25
25 -2 0 4 -11 13 -25z"/>
<path d="M1128 683 c7 -3 16 -2 19 1 4 3 -2 6 -13 5 -11 0 -14 -3 -6 -6z"/>
<path d="M2805 669 c-4 -6 -5 -12 -2 -15 2 -3 7 2 10 11 7 17 1 20 -8 4z"/>
<path d="M2835 669 c-4 -6 -5 -12 -2 -15 2 -3 7 2 10 11 7 17 1 20 -8 4z"/>
<path d="M536 637 c3 -10 9 -15 12 -12 3 3 0 11 -7 18 -10 9 -11 8 -5 -6z"/>
<path d="M2797 624 c2 -7 0 -15 -6 -18 -6 -4 -8 -13 -4 -22 5 -12 7 -12 18 3
7 9 10 24 7 32 -3 9 -1 12 6 7 7 -4 12 -3 12 3 0 5 -9 9 -19 8 -10 0 -17 -6
-14 -13z"/>
<path d="M510 624 c0 -13 42 -75 48 -70 3 3 -2 14 -11 24 -10 10 -15 21 -13
23 2 2 -2 10 -10 17 -8 7 -14 10 -14 6z"/>
<path d="M580 591 c-20 -6 -22 -8 -8 -13 9 -4 22 -1 28 8 7 8 11 14 9 13 -2
-1 -15 -4 -29 -8z"/>
<path d="M607 540 c3 -11 9 -23 14 -25 4 -3 6 -12 3 -19 -3 -8 -1 -17 5 -21 7
-3 11 2 11 14 0 11 -4 23 -10 26 -5 3 -10 15 -10 26 0 10 -4 19 -9 19 -5 0 -7
-9 -4 -20z"/>
<path d="M685 510 c3 -5 11 -10 16 -10 6 0 7 5 4 10 -3 6 -11 10 -16 10 -6 0
-7 -4 -4 -10z"/>
<path d="M2658 503 c7 -3 16 -2 19 1 4 3 -2 6 -13 5 -11 0 -14 -3 -6 -6z"/>
<path d="M660 496 c0 -1 9 -9 20 -19 15 -13 20 -14 20 -3 0 7 -9 16 -20 19
-11 3 -20 4 -20 3z"/>
<path d="M2671 471 c-7 -5 -12 -13 -10 -18 2 -5 12 -1 22 9 18 19 12 24 -12 9z"/>
<path d="M760 436 c0 -2 7 -7 16 -10 8 -3 12 -2 9 4 -6 10 -25 14 -25 6z"/>
<path d="M715 410 c3 -5 11 -10 16 -10 6 0 7 5 4 10 -3 6 -11 10 -16 10 -6 0
-7 -4 -4 -10z"/>
<path d="M757 403 c-4 -3 -7 -11 -7 -17 0 -6 5 -5 12 2 6 6 9 14 7 17 -3 3 -9
2 -12 -2z"/>
<path d="M820 350 c-8 -5 -10 -10 -5 -10 6 0 17 5 25 10 8 5 11 10 5 10 -5 0
-17 -5 -25 -10z"/>
<path d="M866 351 c-3 -5 3 -11 15 -14 16 -4 18 -3 8 9 -13 16 -16 17 -23 5z"/>
<path d="M867 319 c7 -7 15 -10 18 -7 3 3 -2 9 -12 12 -14 6 -15 5 -6 -5z"/>
<path d="M1058 273 c6 -2 18 -2 25 0 6 3 1 5 -13 5 -14 0 -19 -2 -12 -5z"/>
<path d="M2302 265 l-23 -12 21 -6 c12 -3 19 -3 16 0 -3 3 2 12 12 19 22 17 5
16 -26 -1z"/>
<path d="M1948 183 c6 -2 18 -2 25 0 6 3 1 5 -13 5 -14 0 -19 -2 -12 -5z"/>
<path d="M2075 180 c-25 -11 1 -11 35 0 20 6 21 8 5 8 -11 0 -29 -3 -40 -8z"/>
<path d="M1283 173 c9 -2 25 -2 35 0 9 3 1 5 -18 5 -19 0 -27 -2 -17 -5z"/>
<path d="M1960 165 l-35 -13 52 2 c29 2 56 6 60 10 5 4 -5 4 -21 0 -21 -5 -27
-4 -22 5 4 6 6 11 4 10 -2 0 -19 -6 -38 -14z"/>
<path d="M1378 163 c6 -2 18 -2 25 0 6 3 1 5 -13 5 -14 0 -19 -2 -12 -5z"/>
<path d="M1488 163 c7 -3 16 -2 19 1 4 3 -2 6 -13 5 -11 0 -14 -3 -6 -6z"/>
<path d="M1488 143 c7 -3 16 -2 19 1 4 3 -2 6 -13 5 -11 0 -14 -3 -6 -6z"/>
</g>
</svg>
